<mxfile host="65bd71144e">
    <diagram id="gGKdyvFN1VAeUhDXZRC_" name="if_fetch">
        <mxGraphModel dx="1193" dy="495" grid="0" gridSize="10" guides="1" tooltips="1" connect="1" arrows="1" fold="1" page="1" pageScale="1" pageWidth="1100" pageHeight="850" background="#1e5b8a" math="0" shadow="0">
            <root>
                <mxCell id="0"/>
                <mxCell id="1" parent="0"/>
                <mxCell id="2" value="&lt;b&gt;&lt;font color=&quot;#0f0f0f&quot; style=&quot;font-size: 20px;&quot;&gt;Pc&lt;/font&gt;&lt;/b&gt;" style="rounded=0;whiteSpace=wrap;html=1;fillColor=#008a00;fontColor=#ffffff;strokeColor=#005700;" vertex="1" parent="1">
                    <mxGeometry x="220" y="300" width="220" height="60" as="geometry"/>
                </mxCell>
                <mxCell id="4" value="" style="endArrow=classic;html=1;" edge="1" parent="1">
                    <mxGeometry width="50" height="50" relative="1" as="geometry">
                        <mxPoint x="240" y="420" as="sourcePoint"/>
                        <mxPoint x="240" y="360" as="targetPoint"/>
                    </mxGeometry>
                </mxCell>
                <mxCell id="6" value="&lt;font style=&quot;font-size: 16px;&quot;&gt;Clk&lt;/font&gt;" style="text;html=1;align=center;verticalAlign=middle;resizable=0;points=[];autosize=1;strokeColor=none;fillColor=none;fontColor=#080808;fontStyle=1;" vertex="1" parent="1">
                    <mxGeometry x="235" y="380" width="50" height="30" as="geometry"/>
                </mxCell>
                <mxCell id="7" value="" style="endArrow=classic;html=1;" edge="1" parent="1">
                    <mxGeometry width="50" height="50" relative="1" as="geometry">
                        <mxPoint x="300" y="420" as="sourcePoint"/>
                        <mxPoint x="300" y="360" as="targetPoint"/>
                    </mxGeometry>
                </mxCell>
                <mxCell id="8" value="&lt;font style=&quot;font-size: 16px;&quot;&gt;Rst&lt;/font&gt;" style="text;html=1;align=center;verticalAlign=middle;resizable=0;points=[];autosize=1;strokeColor=none;fillColor=none;fontColor=#0d0d0d;fontStyle=1;" vertex="1" parent="1">
                    <mxGeometry x="295" y="380" width="50" height="30" as="geometry"/>
                </mxCell>
                <mxCell id="10" value="&lt;div style=&quot;color: rgb(204, 204, 204); background-color: rgb(31, 31, 31); font-family: Consolas, &amp;quot;Courier New&amp;quot;, monospace; font-size: 14px; line-height: 19px;&quot;&gt;&amp;nbsp;&lt;span style=&quot;color: #9cdcfe;&quot;&gt;mini_core_if module&lt;/span&gt;&lt;/div&gt;" style="text;html=1;align=center;verticalAlign=middle;resizable=0;points=[];autosize=1;strokeColor=#006EAF;fillColor=#1ba1e2;fontColor=#ffffff;" vertex="1" parent="1">
                    <mxGeometry x="374" y="11" width="180" height="30" as="geometry"/>
                </mxCell>
                <mxCell id="11" value="&lt;b&gt;&lt;font style=&quot;font-size: 20px;&quot; color=&quot;#0a0a0a&quot;&gt;IF/ID&lt;/font&gt;&lt;/b&gt;" style="rounded=0;whiteSpace=wrap;html=1;fillColor=#008A00;strokeColor=#2D7600;fontColor=#ffffff;" vertex="1" parent="1">
                    <mxGeometry x="610" y="100" width="80" height="350" as="geometry"/>
                </mxCell>
                <mxCell id="14" value="" style="endArrow=classic;html=1;fontSize=20;fontColor=#0f0f0f;exitX=1;exitY=0.5;exitDx=0;exitDy=0;" edge="1" parent="1" source="2">
                    <mxGeometry relative="1" as="geometry">
                        <mxPoint x="510" y="329.5" as="sourcePoint"/>
                        <mxPoint x="610" y="329.5" as="targetPoint"/>
                        <Array as="points"/>
                    </mxGeometry>
                </mxCell>
                <mxCell id="18" value="&lt;font style=&quot;font-size: 16px;&quot;&gt;PcQ100H&lt;/font&gt;" style="text;html=1;align=center;verticalAlign=middle;resizable=0;points=[];autosize=1;strokeColor=none;fillColor=none;fontSize=12;fontColor=#0d0d0d;fontStyle=1;" vertex="1" parent="1">
                    <mxGeometry x="455" y="330" width="90" height="30" as="geometry"/>
                </mxCell>
                <mxCell id="19" value="" style="endArrow=classic;html=1;" edge="1" parent="1">
                    <mxGeometry width="50" height="50" relative="1" as="geometry">
                        <mxPoint x="380" y="260" as="sourcePoint"/>
                        <mxPoint x="380" y="300" as="targetPoint"/>
                        <Array as="points">
                            <mxPoint x="380" y="230"/>
                            <mxPoint x="380" y="260"/>
                        </Array>
                    </mxGeometry>
                </mxCell>
                <mxCell id="20" value="&lt;font style=&quot;font-size: 16px;&quot;&gt;ReadyQ100H&lt;/font&gt;" style="text;html=1;align=center;verticalAlign=middle;resizable=0;points=[];autosize=1;strokeColor=none;fillColor=none;fontSize=12;fontColor=#0a0a0a;fontStyle=1;" vertex="1" parent="1">
                    <mxGeometry x="380" y="250" width="120" height="30" as="geometry"/>
                </mxCell>
                <mxCell id="21" value="" style="endArrow=classic;html=1;" edge="1" parent="1">
                    <mxGeometry width="50" height="50" relative="1" as="geometry">
                        <mxPoint x="650" y="510" as="sourcePoint"/>
                        <mxPoint x="650" y="450" as="targetPoint"/>
                    </mxGeometry>
                </mxCell>
                <mxCell id="22" value="&lt;font style=&quot;font-size: 16px;&quot;&gt;Clk&lt;/font&gt;" style="text;html=1;align=center;verticalAlign=middle;resizable=0;points=[];autosize=1;strokeColor=none;fillColor=none;fontColor=#0a0a0a;" vertex="1" parent="1">
                    <mxGeometry x="645" y="470" width="50" height="30" as="geometry"/>
                </mxCell>
                <mxCell id="23" value="" style="endArrow=classic;html=1;" edge="1" parent="1">
                    <mxGeometry width="50" height="50" relative="1" as="geometry">
                        <mxPoint x="645" y="60" as="sourcePoint"/>
                        <mxPoint x="645" y="100" as="targetPoint"/>
                        <Array as="points">
                            <mxPoint x="645" y="30"/>
                            <mxPoint x="645" y="60"/>
                        </Array>
                    </mxGeometry>
                </mxCell>
                <mxCell id="24" value="&lt;font style=&quot;font-size: 16px;&quot;&gt;ReadyQ101H&lt;/font&gt;" style="text;html=1;align=center;verticalAlign=middle;resizable=0;points=[];autosize=1;strokeColor=none;fillColor=none;fontSize=12;fontColor=#000000;fontStyle=1;" vertex="1" parent="1">
                    <mxGeometry x="645" y="60" width="120" height="30" as="geometry"/>
                </mxCell>
                <mxCell id="25" value="" style="endArrow=classic;html=1;fontSize=20;fontColor=#0f0f0f;exitX=1;exitY=0.5;exitDx=0;exitDy=0;" edge="1" parent="1">
                    <mxGeometry relative="1" as="geometry">
                        <mxPoint x="690" y="330.5" as="sourcePoint"/>
                        <mxPoint x="830" y="330" as="targetPoint"/>
                        <Array as="points"/>
                    </mxGeometry>
                </mxCell>
                <mxCell id="26" value="&lt;font style=&quot;font-size: 16px;&quot;&gt;PcQ101H&lt;/font&gt;" style="text;html=1;align=center;verticalAlign=middle;resizable=0;points=[];autosize=1;strokeColor=none;fillColor=none;fontSize=12;fontColor=#121212;fontStyle=1;" vertex="1" parent="1">
                    <mxGeometry x="705" y="330.5" width="90" height="30" as="geometry"/>
                </mxCell>
                <mxCell id="27" value="" style="shape=trapezoid;perimeter=trapezoidPerimeter;whiteSpace=wrap;html=1;fixedSize=1;fontSize=12;fontColor=#ffffff;fillColor=#0050ef;size=20;rotation=-90;strokeColor=#001DBC;" vertex="1" parent="1">
                    <mxGeometry x="60" y="110" width="120" height="60" as="geometry"/>
                </mxCell>
                <mxCell id="30" value="" style="endArrow=none;html=1;fontSize=12;fontColor=#FFFFFF;" edge="1" parent="1">
                    <mxGeometry width="50" height="50" relative="1" as="geometry">
                        <mxPoint x="30" y="139.57999999999998" as="sourcePoint"/>
                        <mxPoint x="90" y="139.57999999999998" as="targetPoint"/>
                    </mxGeometry>
                </mxCell>
                <mxCell id="32" value="" style="endArrow=none;html=1;fontSize=12;fontColor=#FFFFFF;" edge="1" parent="1">
                    <mxGeometry width="50" height="50" relative="1" as="geometry">
                        <mxPoint x="30" y="340" as="sourcePoint"/>
                        <mxPoint x="30" y="140" as="targetPoint"/>
                    </mxGeometry>
                </mxCell>
                <mxCell id="35" value="" style="endArrow=classic;html=1;fontSize=12;fontColor=#9CDCFE;" edge="1" parent="1">
                    <mxGeometry width="50" height="50" relative="1" as="geometry">
                        <mxPoint x="120" y="20" as="sourcePoint"/>
                        <mxPoint x="119.41" y="90" as="targetPoint"/>
                    </mxGeometry>
                </mxCell>
                <mxCell id="36" value="&lt;font style=&quot;font-size: 16px;&quot;&gt;ctrl. SelNextPcAluOutQ102H&lt;/font&gt;" style="text;html=1;align=center;verticalAlign=middle;resizable=0;points=[];autosize=1;strokeColor=none;fillColor=none;fontSize=12;fontColor=#080808;fontStyle=1;" vertex="1" parent="1">
                    <mxGeometry x="120" y="30" width="240" height="30" as="geometry"/>
                </mxCell>
                <mxCell id="37" value="" style="endArrow=classic;html=1;fontSize=16;fontColor=#9CDCFE;" edge="1" parent="1">
                    <mxGeometry width="50" height="50" relative="1" as="geometry">
                        <mxPoint x="230" y="100" as="sourcePoint"/>
                        <mxPoint x="150" y="100" as="targetPoint"/>
                    </mxGeometry>
                </mxCell>
                <mxCell id="38" value="AluOutQ102H" style="text;html=1;align=center;verticalAlign=middle;resizable=0;points=[];autosize=1;strokeColor=none;fillColor=none;fontSize=16;fontColor=#050505;fontStyle=1;" vertex="1" parent="1">
                    <mxGeometry x="145" y="100" width="130" height="30" as="geometry"/>
                </mxCell>
                <mxCell id="39" value="+4" style="ellipse;whiteSpace=wrap;html=1;fontSize=16;fontColor=#ffffff;fillColor=#0050ef;strokeColor=#001DBC;" vertex="1" parent="1">
                    <mxGeometry x="253" y="141" width="70" height="40" as="geometry"/>
                </mxCell>
                <mxCell id="40" value="" style="endArrow=classic;html=1;fontSize=16;fontColor=#9CDCFE;exitX=0;exitY=0.5;exitDx=0;exitDy=0;" edge="1" parent="1" source="39">
                    <mxGeometry width="50" height="50" relative="1" as="geometry">
                        <mxPoint x="190" y="159.41" as="sourcePoint"/>
                        <mxPoint x="150" y="159.41" as="targetPoint"/>
                    </mxGeometry>
                </mxCell>
                <mxCell id="41" value="" style="endArrow=classic;html=1;fontSize=16;fontColor=#9CDCFE;" edge="1" parent="1">
                    <mxGeometry width="50" height="50" relative="1" as="geometry">
                        <mxPoint x="541" y="161" as="sourcePoint"/>
                        <mxPoint x="321" y="160.41" as="targetPoint"/>
                    </mxGeometry>
                </mxCell>
                <mxCell id="42" value="" style="endArrow=none;html=1;fontSize=16;fontColor=#9CDCFE;" edge="1" parent="1">
                    <mxGeometry width="50" height="50" relative="1" as="geometry">
                        <mxPoint x="540" y="330" as="sourcePoint"/>
                        <mxPoint x="540" y="160" as="targetPoint"/>
                    </mxGeometry>
                </mxCell>
                <mxCell id="43" value="" style="endArrow=classic;html=1;fontSize=16;fontColor=#9CDCFE;entryX=-0.002;entryY=0.633;entryDx=0;entryDy=0;entryPerimeter=0;" edge="1" parent="1" target="2">
                    <mxGeometry width="50" height="50" relative="1" as="geometry">
                        <mxPoint x="30" y="340" as="sourcePoint"/>
                        <mxPoint x="100" y="340" as="targetPoint"/>
                    </mxGeometry>
                </mxCell>
                <mxCell id="44" value="&lt;font color=&quot;#0d0d0d&quot;&gt;NextPcQnnnH&lt;/font&gt;" style="text;html=1;align=center;verticalAlign=middle;resizable=0;points=[];autosize=1;strokeColor=none;fillColor=none;fontSize=16;fontColor=#9CDCFE;fontStyle=1;" vertex="1" parent="1">
                    <mxGeometry x="50" y="350" width="130" height="30" as="geometry"/>
                </mxCell>
                <mxCell id="45" value="PcPlus4Q100H" style="text;html=1;align=center;verticalAlign=middle;resizable=0;points=[];autosize=1;strokeColor=none;fillColor=none;fontSize=14;fontColor=#050505;fontStyle=1;" vertex="1" parent="1">
                    <mxGeometry x="151.5" y="166" width="117" height="29" as="geometry"/>
                </mxCell>
            </root>
        </mxGraphModel>
    </diagram>
    <diagram id="HVe6a2ZWCECnWQVOCcdb" name="rf">
        <mxGraphModel dx="4993" dy="2530" grid="1" gridSize="10" guides="1" tooltips="1" connect="1" arrows="1" fold="1" page="1" pageScale="1" pageWidth="850" pageHeight="1100" background="#1E5B8A" math="0" shadow="0">
            <root>
                <mxCell id="0"/>
                <mxCell id="1" parent="0"/>
                <mxCell id="9bT-2X5xyFC2AuUNZW9H-1" value="&lt;b&gt;&lt;font style=&quot;font-size: 20px;&quot; color=&quot;#0a0a0a&quot;&gt;IF/ID&lt;/font&gt;&lt;/b&gt;" style="rounded=0;whiteSpace=wrap;html=1;fillColor=#008A00;strokeColor=#2D7600;fontColor=#ffffff;" vertex="1" parent="1">
                    <mxGeometry x="910" y="180" width="90" height="620" as="geometry"/>
                </mxCell>
                <mxCell id="9bT-2X5xyFC2AuUNZW9H-2" value="&lt;b&gt;&lt;font style=&quot;font-size: 20px;&quot; color=&quot;#0a0a0a&quot;&gt;Register&lt;br&gt;File&lt;br&gt;&lt;br&gt;&lt;/font&gt;&lt;/b&gt;" style="rounded=0;whiteSpace=wrap;html=1;fillColor=#008A00;strokeColor=#2D7600;fontColor=#ffffff;" vertex="1" parent="1">
                    <mxGeometry x="-110" y="330" width="280" height="310" as="geometry"/>
                </mxCell>
                <mxCell id="9bT-2X5xyFC2AuUNZW9H-3" value="" style="endArrow=classic;html=1;fontSize=14;" edge="1" parent="1">
                    <mxGeometry width="50" height="50" relative="1" as="geometry">
                        <mxPoint x="-190" y="360" as="sourcePoint"/>
                        <mxPoint x="-110" y="360" as="targetPoint"/>
                    </mxGeometry>
                </mxCell>
                <mxCell id="9bT-2X5xyFC2AuUNZW9H-4" value="" style="endArrow=classic;html=1;fontSize=14;" edge="1" parent="1">
                    <mxGeometry width="50" height="50" relative="1" as="geometry">
                        <mxPoint x="-190" y="440" as="sourcePoint"/>
                        <mxPoint x="-110" y="440" as="targetPoint"/>
                    </mxGeometry>
                </mxCell>
                <mxCell id="9bT-2X5xyFC2AuUNZW9H-5" value="" style="endArrow=classic;html=1;fontSize=14;" edge="1" parent="1">
                    <mxGeometry width="50" height="50" relative="1" as="geometry">
                        <mxPoint x="-190" y="520" as="sourcePoint"/>
                        <mxPoint x="-110" y="520" as="targetPoint"/>
                    </mxGeometry>
                </mxCell>
                <mxCell id="9bT-2X5xyFC2AuUNZW9H-6" value="" style="endArrow=classic;html=1;fontSize=14;" edge="1" parent="1">
                    <mxGeometry width="50" height="50" relative="1" as="geometry">
                        <mxPoint x="-190" y="600" as="sourcePoint"/>
                        <mxPoint x="-110" y="600" as="targetPoint"/>
                    </mxGeometry>
                </mxCell>
                <mxCell id="9bT-2X5xyFC2AuUNZW9H-7" value="" style="endArrow=classic;html=1;fontSize=14;" edge="1" parent="1">
                    <mxGeometry width="50" height="50" relative="1" as="geometry">
                        <mxPoint x="-80" y="270" as="sourcePoint"/>
                        <mxPoint x="-80" y="330" as="targetPoint"/>
                    </mxGeometry>
                </mxCell>
                <mxCell id="W00fiGT_eutdBiGeLAdY-1" value="&lt;div style=&quot;color: rgb(204, 204, 204); background-color: rgb(31, 31, 31); font-family: Consolas, &amp;quot;Courier New&amp;quot;, monospace; font-size: 26px; line-height: 19px;&quot;&gt;&amp;nbsp;&lt;span style=&quot;color: rgb(156, 220, 254); font-size: 26px;&quot;&gt;mini_core_rf module&lt;/span&gt;&lt;/div&gt;" style="text;html=1;align=center;verticalAlign=middle;resizable=0;points=[];autosize=1;strokeColor=#006EAF;fillColor=#1ba1e2;fontColor=#ffffff;fontSize=26;" vertex="1" parent="1">
                    <mxGeometry x="80" y="-160" width="310" height="30" as="geometry"/>
                </mxCell>
                <mxCell id="W00fiGT_eutdBiGeLAdY-2" value="" style="endArrow=classic;html=1;fontSize=14;startArrow=none;" edge="1" parent="1" source="2QToOZ7IxcZleolPdCB--6">
                    <mxGeometry width="50" height="50" relative="1" as="geometry">
                        <mxPoint x="80" y="730" as="sourcePoint"/>
                        <mxPoint x="80" y="640" as="targetPoint"/>
                    </mxGeometry>
                </mxCell>
                <mxCell id="2QToOZ7IxcZleolPdCB--2" value="Ctrl.RegSrc1Q101H" style="text;html=1;align=center;verticalAlign=middle;resizable=0;points=[];autosize=1;strokeColor=none;fillColor=none;fontSize=16;fontStyle=1;fontColor=#0a0a0a;" vertex="1" parent="1">
                    <mxGeometry x="-310" y="330" width="170" height="30" as="geometry"/>
                </mxCell>
                <mxCell id="2QToOZ7IxcZleolPdCB--3" value="Ctrl.RegSrc1Q102H" style="text;html=1;align=center;verticalAlign=middle;resizable=0;points=[];autosize=1;strokeColor=none;fillColor=none;fontSize=16;fontStyle=1;fontColor=#0a0a0a;" vertex="1" parent="1">
                    <mxGeometry x="-310" y="400" width="170" height="30" as="geometry"/>
                </mxCell>
                <mxCell id="2QToOZ7IxcZleolPdCB--4" value="Ctrl.RegDstQ104H" style="text;html=1;align=center;verticalAlign=middle;resizable=0;points=[];autosize=1;strokeColor=none;fillColor=none;fontSize=16;fontStyle=1;fontColor=#0a0a0a;" vertex="1" parent="1">
                    <mxGeometry x="-300" y="480" width="160" height="30" as="geometry"/>
                </mxCell>
                <mxCell id="2QToOZ7IxcZleolPdCB--5" value="RegWriteDataQ104H" style="text;html=1;align=center;verticalAlign=middle;resizable=0;points=[];autosize=1;strokeColor=none;fillColor=none;fontSize=16;fontStyle=1;fontColor=#0a0a0a;" vertex="1" parent="1">
                    <mxGeometry x="-310" y="560" width="180" height="30" as="geometry"/>
                </mxCell>
                <mxCell id="1q6JDUxdyjMyTkkyKD93-1" value="" style="endArrow=none;html=1;fontSize=14;" edge="1" parent="1" target="2QToOZ7IxcZleolPdCB--6">
                    <mxGeometry width="50" height="50" relative="1" as="geometry">
                        <mxPoint x="80" y="730" as="sourcePoint"/>
                        <mxPoint x="80" y="640" as="targetPoint"/>
                    </mxGeometry>
                </mxCell>
                <mxCell id="2QToOZ7IxcZleolPdCB--6" value="" style="shape=or;whiteSpace=wrap;html=1;fontSize=16;fontColor=#0a0a0a;fillColor=#001DBC;gradientColor=none;rotation=-90;" vertex="1" parent="1">
                    <mxGeometry x="50" y="680" width="60" height="80" as="geometry"/>
                </mxCell>
                <mxCell id="1q6JDUxdyjMyTkkyKD93-2" value="" style="endArrow=classic;html=1;fontSize=16;fontColor=#0a0a0a;" edge="1" parent="1">
                    <mxGeometry width="50" height="50" relative="1" as="geometry">
                        <mxPoint x="50" y="910" as="sourcePoint"/>
                        <mxPoint x="50" y="750" as="targetPoint"/>
                    </mxGeometry>
                </mxCell>
                <mxCell id="1q6JDUxdyjMyTkkyKD93-3" value="Ctrl.RegWrEnQ104H" style="text;html=1;align=center;verticalAlign=middle;resizable=0;points=[];autosize=1;strokeColor=none;fillColor=none;fontSize=16;fontColor=#0a0a0a;fontStyle=1;rotation=-90;" vertex="1" parent="1">
                    <mxGeometry x="-60" y="830" width="180" height="30" as="geometry"/>
                </mxCell>
                <mxCell id="1q6JDUxdyjMyTkkyKD93-4" value="" style="endArrow=classic;html=1;fontSize=16;fontColor=#0a0a0a;" edge="1" parent="1">
                    <mxGeometry width="50" height="50" relative="1" as="geometry">
                        <mxPoint x="109" y="810" as="sourcePoint"/>
                        <mxPoint x="108.82" y="750" as="targetPoint"/>
                    </mxGeometry>
                </mxCell>
                <mxCell id="1q6JDUxdyjMyTkkyKD93-5" value="Ctrl.RegDstQ104H" style="text;html=1;align=center;verticalAlign=middle;resizable=0;points=[];autosize=1;strokeColor=none;fillColor=none;fontSize=16;fontColor=#0a0a0a;fontStyle=1;rotation=-90;" vertex="1" parent="1">
                    <mxGeometry x="60" y="940" width="160" height="30" as="geometry"/>
                </mxCell>
                <mxCell id="1q6JDUxdyjMyTkkyKD93-6" value="!=0" style="ellipse;whiteSpace=wrap;html=1;aspect=fixed;fontSize=16;fontColor=#0a0a0a;fillColor=#001DBC;gradientColor=none;fontStyle=1" vertex="1" parent="1">
                    <mxGeometry x="80" y="810" width="60" height="60" as="geometry"/>
                </mxCell>
                <mxCell id="1q6JDUxdyjMyTkkyKD93-7" value="" style="endArrow=classic;html=1;fontSize=16;fontColor=#0a0a0a;" edge="1" parent="1">
                    <mxGeometry width="50" height="50" relative="1" as="geometry">
                        <mxPoint x="110" y="1040" as="sourcePoint"/>
                        <mxPoint x="110" y="870" as="targetPoint"/>
                    </mxGeometry>
                </mxCell>
                <mxCell id="1q6JDUxdyjMyTkkyKD93-8" value="" style="endArrow=classic;html=1;fontSize=16;fontColor=#0a0a0a;entryX=0.846;entryY=1.067;entryDx=0;entryDy=0;entryPerimeter=0;" edge="1" parent="1" target="1q6JDUxdyjMyTkkyKD93-10">
                    <mxGeometry width="50" height="50" relative="1" as="geometry">
                        <mxPoint x="170" y="360" as="sourcePoint"/>
                        <mxPoint x="295" y="360" as="targetPoint"/>
                    </mxGeometry>
                </mxCell>
                <mxCell id="1q6JDUxdyjMyTkkyKD93-9" value="" style="endArrow=classic;html=1;fontSize=16;fontColor=#0a0a0a;entryX=0.175;entryY=1.043;entryDx=0;entryDy=0;entryPerimeter=0;" edge="1" parent="1" target="1q6JDUxdyjMyTkkyKD93-11">
                    <mxGeometry width="50" height="50" relative="1" as="geometry">
                        <mxPoint x="170" y="600" as="sourcePoint"/>
                        <mxPoint x="295" y="600" as="targetPoint"/>
                    </mxGeometry>
                </mxCell>
                <mxCell id="1q6JDUxdyjMyTkkyKD93-10" value="" style="shape=trapezoid;perimeter=trapezoidPerimeter;whiteSpace=wrap;html=1;fixedSize=1;fontSize=16;fontColor=#0a0a0a;fillColor=#001DBC;gradientColor=none;rotation=90;" vertex="1" parent="1">
                    <mxGeometry x="410" y="290" width="120" height="60" as="geometry"/>
                </mxCell>
                <mxCell id="1q6JDUxdyjMyTkkyKD93-11" value="" style="shape=trapezoid;perimeter=trapezoidPerimeter;whiteSpace=wrap;html=1;fixedSize=1;fontSize=16;fontColor=#0a0a0a;fillColor=#001DBC;gradientColor=none;rotation=90;" vertex="1" parent="1">
                    <mxGeometry x="410" y="610" width="120" height="60" as="geometry"/>
                </mxCell>
                <mxCell id="1q6JDUxdyjMyTkkyKD93-12" value="" style="endArrow=classic;html=1;fontSize=16;fontColor=#0a0a0a;" edge="1" parent="1">
                    <mxGeometry width="50" height="50" relative="1" as="geometry">
                        <mxPoint x="469" y="80" as="sourcePoint"/>
                        <mxPoint x="469.41" y="270" as="targetPoint"/>
                    </mxGeometry>
                </mxCell>
                <mxCell id="1q6JDUxdyjMyTkkyKD93-13" value="MatchRd1AftrWrQ101H" style="text;html=1;align=center;verticalAlign=middle;resizable=0;points=[];autosize=1;strokeColor=none;fillColor=none;fontSize=16;fontStyle=1;fontColor=#0a0a0a;rotation=-90;" vertex="1" parent="1">
                    <mxGeometry x="340" y="140" width="200" height="30" as="geometry"/>
                </mxCell>
                <mxCell id="1q6JDUxdyjMyTkkyKD93-14" value="Register[Ctrl.RegSrc1Q101H]" style="text;html=1;align=center;verticalAlign=middle;resizable=0;points=[];autosize=1;strokeColor=none;fillColor=none;fontSize=16;fontStyle=1;fontColor=#0a0a0a;" vertex="1" parent="1">
                    <mxGeometry x="175" y="370" width="250" height="30" as="geometry"/>
                </mxCell>
                <mxCell id="1q6JDUxdyjMyTkkyKD93-15" value="" style="endArrow=classic;html=1;fontSize=16;fontColor=#0a0a0a;" edge="1" parent="1">
                    <mxGeometry width="50" height="50" relative="1" as="geometry">
                        <mxPoint x="210" y="290" as="sourcePoint"/>
                        <mxPoint x="440" y="288.82" as="targetPoint"/>
                    </mxGeometry>
                </mxCell>
                <mxCell id="1q6JDUxdyjMyTkkyKD93-16" value="RegWriteDataQ104H" style="text;html=1;align=center;verticalAlign=middle;resizable=0;points=[];autosize=1;strokeColor=none;fillColor=none;fontSize=16;fontStyle=1;fontColor=#0a0a0a;" vertex="1" parent="1">
                    <mxGeometry x="220" y="250" width="180" height="30" as="geometry"/>
                </mxCell>
                <mxCell id="1q6JDUxdyjMyTkkyKD93-17" value="" style="shape=trapezoid;perimeter=trapezoidPerimeter;whiteSpace=wrap;html=1;fixedSize=1;fontSize=16;fontColor=#0a0a0a;fillColor=#001DBC;gradientColor=none;rotation=90;" vertex="1" parent="1">
                    <mxGeometry x="580" y="260" width="120" height="60" as="geometry"/>
                </mxCell>
                <mxCell id="1q6JDUxdyjMyTkkyKD93-18" value="" style="endArrow=classic;html=1;fontSize=16;fontColor=#0a0a0a;entryX=0.831;entryY=1.008;entryDx=0;entryDy=0;entryPerimeter=0;" edge="1" parent="1" target="1q6JDUxdyjMyTkkyKD93-17">
                    <mxGeometry width="50" height="50" relative="1" as="geometry">
                        <mxPoint x="500" y="328.82" as="sourcePoint"/>
                        <mxPoint x="590" y="328.82" as="targetPoint"/>
                    </mxGeometry>
                </mxCell>
                <mxCell id="1q6JDUxdyjMyTkkyKD93-19" value="" style="endArrow=classic;html=1;fontSize=16;fontColor=#0a0a0a;exitX=-0.047;exitY=1.051;exitDx=0;exitDy=0;exitPerimeter=0;" edge="1" parent="1" source="1q6JDUxdyjMyTkkyKD93-20">
                    <mxGeometry width="50" height="50" relative="1" as="geometry">
                        <mxPoint x="510" y="260" as="sourcePoint"/>
                        <mxPoint x="610" y="260" as="targetPoint"/>
                    </mxGeometry>
                </mxCell>
                <mxCell id="1q6JDUxdyjMyTkkyKD93-20" value="&lt;b&gt;32'b0&lt;/b&gt;" style="text;html=1;align=center;verticalAlign=middle;resizable=0;points=[];autosize=1;strokeColor=none;fillColor=none;fontSize=16;fontColor=#0a0a0a;" vertex="1" parent="1">
                    <mxGeometry x="530" y="230" width="60" height="30" as="geometry"/>
                </mxCell>
                <mxCell id="1q6JDUxdyjMyTkkyKD93-21" value="" style="shape=or;whiteSpace=wrap;html=1;fontSize=16;fontColor=#0a0a0a;fillColor=#001DBC;gradientColor=none;rotation=-180;" vertex="1" parent="1">
                    <mxGeometry x="520" y="50" width="30" height="50" as="geometry"/>
                </mxCell>
                <mxCell id="1q6JDUxdyjMyTkkyKD93-23" value="" style="endArrow=none;html=1;fontSize=16;fontColor=#0a0a0a;" edge="1" parent="1">
                    <mxGeometry width="50" height="50" relative="1" as="geometry">
                        <mxPoint x="520" y="80" as="sourcePoint"/>
                        <mxPoint x="470" y="80" as="targetPoint"/>
                    </mxGeometry>
                </mxCell>
                <mxCell id="1q6JDUxdyjMyTkkyKD93-24" value="" style="endArrow=classic;html=1;fontSize=16;fontColor=#0a0a0a;" edge="1" parent="1">
                    <mxGeometry width="50" height="50" relative="1" as="geometry">
                        <mxPoint x="700" y="90" as="sourcePoint"/>
                        <mxPoint x="550" y="90" as="targetPoint"/>
                    </mxGeometry>
                </mxCell>
                <mxCell id="1q6JDUxdyjMyTkkyKD93-26" value="" style="endArrow=classic;html=1;fontSize=16;fontColor=#0a0a0a;" edge="1" parent="1">
                    <mxGeometry width="50" height="50" relative="1" as="geometry">
                        <mxPoint x="600" y="59.999999999999886" as="sourcePoint"/>
                        <mxPoint x="550" y="59.999999999999886" as="targetPoint"/>
                    </mxGeometry>
                </mxCell>
                <mxCell id="1q6JDUxdyjMyTkkyKD93-27" value="&lt;b&gt;=&lt;/b&gt;" style="ellipse;whiteSpace=wrap;html=1;aspect=fixed;fontSize=16;fontColor=#0a0a0a;fillColor=#001DBC;gradientColor=none;" vertex="1" parent="1">
                    <mxGeometry x="600" y="40" width="40" height="40" as="geometry"/>
                </mxCell>
                <mxCell id="1q6JDUxdyjMyTkkyKD93-28" value="" style="endArrow=classic;html=1;fontSize=16;fontColor=#0a0a0a;" edge="1" parent="1">
                    <mxGeometry width="50" height="50" relative="1" as="geometry">
                        <mxPoint x="720" y="59.41" as="sourcePoint"/>
                        <mxPoint x="640" y="59.81999999999999" as="targetPoint"/>
                        <Array as="points">
                            <mxPoint x="680" y="59.81999999999999"/>
                        </Array>
                    </mxGeometry>
                </mxCell>
                <mxCell id="1q6JDUxdyjMyTkkyKD93-29" value="Ctrl.RegWrEnQ104H" style="text;html=1;align=center;verticalAlign=middle;resizable=0;points=[];autosize=1;strokeColor=none;fillColor=none;fontSize=16;fontStyle=1;fontColor=#0a0a0a;" vertex="1" parent="1">
                    <mxGeometry x="565" y="100" width="180" height="30" as="geometry"/>
                </mxCell>
                <mxCell id="1q6JDUxdyjMyTkkyKD93-30" value="" style="endArrow=classic;html=1;fontSize=16;fontColor=#0a0a0a;" edge="1" parent="1">
                    <mxGeometry width="50" height="50" relative="1" as="geometry">
                        <mxPoint x="619" y="-90" as="sourcePoint"/>
                        <mxPoint x="619.41" y="40" as="targetPoint"/>
                    </mxGeometry>
                </mxCell>
                <mxCell id="1q6JDUxdyjMyTkkyKD93-31" value="" style="endArrow=none;html=1;fontSize=16;fontColor=#0a0a0a;" edge="1" parent="1">
                    <mxGeometry width="50" height="50" relative="1" as="geometry">
                        <mxPoint x="720" y="60" as="sourcePoint"/>
                        <mxPoint x="720" y="-90" as="targetPoint"/>
                    </mxGeometry>
                </mxCell>
                <mxCell id="1q6JDUxdyjMyTkkyKD93-32" value="Ctrl.RegSrc1Q101H" style="text;html=1;align=center;verticalAlign=middle;resizable=0;points=[];autosize=1;strokeColor=none;fillColor=none;fontSize=16;fontStyle=1;fontColor=#0a0a0a;rotation=-90;" vertex="1" parent="1">
                    <mxGeometry x="510" y="-60" width="170" height="30" as="geometry"/>
                </mxCell>
                <mxCell id="1q6JDUxdyjMyTkkyKD93-34" value="Ctrl.RegDstQ104H" style="text;html=1;align=center;verticalAlign=middle;resizable=0;points=[];autosize=1;strokeColor=none;fillColor=none;fontSize=16;fontStyle=1;fontColor=#0a0a0a;rotation=-90;" vertex="1" parent="1">
                    <mxGeometry x="670" y="-30" width="160" height="30" as="geometry"/>
                </mxCell>
                <mxCell id="1q6JDUxdyjMyTkkyKD93-35" value="Ctrl.RegSrc1Q101H" style="text;html=1;align=center;verticalAlign=middle;resizable=0;points=[];autosize=1;strokeColor=none;fillColor=none;fontSize=16;fontStyle=1;fontColor=#0a0a0a;rotation=-90;" vertex="1" parent="1">
                    <mxGeometry x="580" y="420" width="170" height="30" as="geometry"/>
                </mxCell>
                <mxCell id="1q6JDUxdyjMyTkkyKD93-36" value="" style="endArrow=classic;html=1;fontSize=16;fontColor=#0a0a0a;" edge="1" parent="1">
                    <mxGeometry width="50" height="50" relative="1" as="geometry">
                        <mxPoint x="638.82" y="420" as="sourcePoint"/>
                        <mxPoint x="638.82" y="340" as="targetPoint"/>
                    </mxGeometry>
                </mxCell>
                <mxCell id="1q6JDUxdyjMyTkkyKD93-37" value="" style="endArrow=classic;html=1;fontSize=16;fontColor=#0a0a0a;entryX=0.008;entryY=0.175;entryDx=0;entryDy=0;entryPerimeter=0;exitX=0.5;exitY=0;exitDx=0;exitDy=0;" edge="1" parent="1" source="1q6JDUxdyjMyTkkyKD93-17" target="9bT-2X5xyFC2AuUNZW9H-1">
                    <mxGeometry width="50" height="50" relative="1" as="geometry">
                        <mxPoint x="680" y="290" as="sourcePoint"/>
                        <mxPoint x="770" y="290" as="targetPoint"/>
                        <Array as="points">
                            <mxPoint x="900" y="289"/>
                        </Array>
                    </mxGeometry>
                </mxCell>
                <mxCell id="1q6JDUxdyjMyTkkyKD93-38" value="&lt;b&gt;Clk&lt;/b&gt;" style="text;html=1;align=center;verticalAlign=middle;resizable=0;points=[];autosize=1;strokeColor=none;fillColor=none;fontSize=16;fontColor=#0a0a0a;" vertex="1" parent="1">
                    <mxGeometry x="-130" y="280" width="50" height="30" as="geometry"/>
                </mxCell>
                <mxCell id="1q6JDUxdyjMyTkkyKD93-39" value="&lt;b&gt;Clk&lt;/b&gt;" style="text;html=1;align=center;verticalAlign=middle;resizable=0;points=[];autosize=1;strokeColor=none;fillColor=none;fontSize=16;fontColor=#0a0a0a;" vertex="1" parent="1">
                    <mxGeometry x="890" y="140" width="50" height="30" as="geometry"/>
                </mxCell>
                <mxCell id="1q6JDUxdyjMyTkkyKD93-40" value="" style="endArrow=classic;html=1;fontSize=16;fontColor=#0a0a0a;" edge="1" parent="1">
                    <mxGeometry width="50" height="50" relative="1" as="geometry">
                        <mxPoint x="940" y="120" as="sourcePoint"/>
                        <mxPoint x="940" y="180" as="targetPoint"/>
                    </mxGeometry>
                </mxCell>
                <mxCell id="1q6JDUxdyjMyTkkyKD93-41" value="" style="endArrow=classic;html=1;fontSize=16;fontColor=#0a0a0a;" edge="1" parent="1">
                    <mxGeometry width="50" height="50" relative="1" as="geometry">
                        <mxPoint x="980" y="60" as="sourcePoint"/>
                        <mxPoint x="980" y="180" as="targetPoint"/>
                    </mxGeometry>
                </mxCell>
                <mxCell id="1q6JDUxdyjMyTkkyKD93-42" value="&lt;b&gt;ReadyQ102H&lt;/b&gt;" style="text;html=1;align=center;verticalAlign=middle;resizable=0;points=[];autosize=1;strokeColor=none;fillColor=none;fontSize=16;fontColor=#0a0a0a;rotation=-90;" vertex="1" parent="1">
                    <mxGeometry x="950" y="100" width="120" height="30" as="geometry"/>
                </mxCell>
                <mxCell id="1q6JDUxdyjMyTkkyKD93-43" value="Register[Ctrl.RegSrc2Q101H]" style="text;html=1;align=center;verticalAlign=middle;resizable=0;points=[];autosize=1;strokeColor=none;fillColor=none;fontSize=16;fontStyle=1;fontColor=#0a0a0a;" vertex="1" parent="1">
                    <mxGeometry x="185" y="560" width="250" height="30" as="geometry"/>
                </mxCell>
                <mxCell id="1q6JDUxdyjMyTkkyKD93-44" value="" style="endArrow=classic;html=1;fontSize=16;fontColor=#0a0a0a;" edge="1" parent="1">
                    <mxGeometry width="50" height="50" relative="1" as="geometry">
                        <mxPoint x="210" y="660" as="sourcePoint"/>
                        <mxPoint x="440" y="660" as="targetPoint"/>
                    </mxGeometry>
                </mxCell>
                <mxCell id="1q6JDUxdyjMyTkkyKD93-46" value="RegWriteDataQ104H" style="text;html=1;align=center;verticalAlign=middle;resizable=0;points=[];autosize=1;strokeColor=none;fillColor=none;fontSize=16;fontStyle=1;fontColor=#0a0a0a;rotation=0;" vertex="1" parent="1">
                    <mxGeometry x="230" y="680" width="180" height="30" as="geometry"/>
                </mxCell>
                <mxCell id="1q6JDUxdyjMyTkkyKD93-47" value="" style="endArrow=classic;html=1;fontSize=16;fontColor=#0a0a0a;entryX=1;entryY=0.5;entryDx=0;entryDy=0;" edge="1" parent="1" target="1q6JDUxdyjMyTkkyKD93-11">
                    <mxGeometry width="50" height="50" relative="1" as="geometry">
                        <mxPoint x="469" y="990" as="sourcePoint"/>
                        <mxPoint x="469.40999999999997" y="790" as="targetPoint"/>
                    </mxGeometry>
                </mxCell>
                <mxCell id="1q6JDUxdyjMyTkkyKD93-48" value="MatchRd2AftrWrQ101H" style="text;html=1;align=center;verticalAlign=middle;resizable=0;points=[];autosize=1;strokeColor=none;fillColor=none;fontSize=16;fontStyle=1;fontColor=#0a0a0a;rotation=-90;" vertex="1" parent="1">
                    <mxGeometry x="350" y="890" width="200" height="30" as="geometry"/>
                </mxCell>
                <mxCell id="1q6JDUxdyjMyTkkyKD93-49" value="" style="shape=or;whiteSpace=wrap;html=1;fontSize=16;fontColor=#0a0a0a;fillColor=#001DBC;gradientColor=none;rotation=-180;" vertex="1" parent="1">
                    <mxGeometry x="520" y="960" width="30" height="50" as="geometry"/>
                </mxCell>
                <mxCell id="1q6JDUxdyjMyTkkyKD93-50" value="" style="endArrow=none;html=1;fontSize=16;fontColor=#0a0a0a;" edge="1" parent="1">
                    <mxGeometry width="50" height="50" relative="1" as="geometry">
                        <mxPoint x="520" y="990" as="sourcePoint"/>
                        <mxPoint x="470" y="990" as="targetPoint"/>
                    </mxGeometry>
                </mxCell>
                <mxCell id="1q6JDUxdyjMyTkkyKD93-51" value="" style="endArrow=classic;html=1;fontSize=16;fontColor=#0a0a0a;" edge="1" parent="1">
                    <mxGeometry width="50" height="50" relative="1" as="geometry">
                        <mxPoint x="700" y="1000" as="sourcePoint"/>
                        <mxPoint x="550" y="1000" as="targetPoint"/>
                    </mxGeometry>
                </mxCell>
                <mxCell id="1q6JDUxdyjMyTkkyKD93-52" value="" style="endArrow=classic;html=1;fontSize=16;fontColor=#0a0a0a;" edge="1" parent="1">
                    <mxGeometry width="50" height="50" relative="1" as="geometry">
                        <mxPoint x="600" y="970" as="sourcePoint"/>
                        <mxPoint x="550" y="970" as="targetPoint"/>
                    </mxGeometry>
                </mxCell>
                <mxCell id="1q6JDUxdyjMyTkkyKD93-53" value="&lt;b&gt;=&lt;/b&gt;" style="ellipse;whiteSpace=wrap;html=1;aspect=fixed;fontSize=16;fontColor=#0a0a0a;fillColor=#001DBC;gradientColor=none;" vertex="1" parent="1">
                    <mxGeometry x="600" y="950" width="40" height="40" as="geometry"/>
                </mxCell>
                <mxCell id="1q6JDUxdyjMyTkkyKD93-54" value="" style="endArrow=classic;html=1;fontSize=16;fontColor=#0a0a0a;" edge="1" parent="1">
                    <mxGeometry width="50" height="50" relative="1" as="geometry">
                        <mxPoint x="720" y="969.4100000000001" as="sourcePoint"/>
                        <mxPoint x="640" y="969.8199999999999" as="targetPoint"/>
                        <Array as="points">
                            <mxPoint x="680" y="969.8199999999999"/>
                        </Array>
                    </mxGeometry>
                </mxCell>
                <mxCell id="1q6JDUxdyjMyTkkyKD93-55" value="Ctrl.RegWrEnQ104H" style="text;html=1;align=center;verticalAlign=middle;resizable=0;points=[];autosize=1;strokeColor=none;fillColor=none;fontSize=16;fontStyle=1;fontColor=#0a0a0a;" vertex="1" parent="1">
                    <mxGeometry x="565" y="1010" width="180" height="30" as="geometry"/>
                </mxCell>
                <mxCell id="1q6JDUxdyjMyTkkyKD93-56" value="" style="endArrow=classic;html=1;fontSize=16;fontColor=#0a0a0a;" edge="1" parent="1">
                    <mxGeometry width="50" height="50" relative="1" as="geometry">
                        <mxPoint x="619" y="820" as="sourcePoint"/>
                        <mxPoint x="619.4099999999999" y="950" as="targetPoint"/>
                    </mxGeometry>
                </mxCell>
                <mxCell id="1q6JDUxdyjMyTkkyKD93-57" value="" style="endArrow=none;html=1;fontSize=16;fontColor=#0a0a0a;" edge="1" parent="1">
                    <mxGeometry width="50" height="50" relative="1" as="geometry">
                        <mxPoint x="720" y="970" as="sourcePoint"/>
                        <mxPoint x="720" y="820" as="targetPoint"/>
                    </mxGeometry>
                </mxCell>
                <mxCell id="1q6JDUxdyjMyTkkyKD93-58" value="Ctrl.RegSrc2Q101H" style="text;html=1;align=center;verticalAlign=middle;resizable=0;points=[];autosize=1;strokeColor=none;fillColor=none;fontSize=16;fontStyle=1;fontColor=#0a0a0a;rotation=-90;" vertex="1" parent="1">
                    <mxGeometry x="510" y="850" width="170" height="30" as="geometry"/>
                </mxCell>
                <mxCell id="1q6JDUxdyjMyTkkyKD93-59" value="Ctrl.RegDstQ104H" style="text;html=1;align=center;verticalAlign=middle;resizable=0;points=[];autosize=1;strokeColor=none;fillColor=none;fontSize=16;fontStyle=1;fontColor=#0a0a0a;rotation=-90;" vertex="1" parent="1">
                    <mxGeometry x="660" y="880" width="160" height="30" as="geometry"/>
                </mxCell>
                <mxCell id="1q6JDUxdyjMyTkkyKD93-60" value="" style="endArrow=classic;html=1;fontSize=16;fontColor=#0a0a0a;" edge="1" parent="1">
                    <mxGeometry width="50" height="50" relative="1" as="geometry">
                        <mxPoint x="500" y="640" as="sourcePoint"/>
                        <mxPoint x="610" y="640" as="targetPoint"/>
                    </mxGeometry>
                </mxCell>
                <mxCell id="1q6JDUxdyjMyTkkyKD93-61" value="" style="shape=trapezoid;perimeter=trapezoidPerimeter;whiteSpace=wrap;html=1;fixedSize=1;fontSize=16;fontColor=#0a0a0a;fillColor=#001DBC;gradientColor=none;rotation=90;" vertex="1" parent="1">
                    <mxGeometry x="580" y="580" width="120" height="60" as="geometry"/>
                </mxCell>
                <mxCell id="1q6JDUxdyjMyTkkyKD93-62" value="" style="endArrow=classic;html=1;fontSize=16;fontColor=#0a0a0a;exitX=-0.047;exitY=1.051;exitDx=0;exitDy=0;exitPerimeter=0;" edge="1" parent="1" source="1q6JDUxdyjMyTkkyKD93-63">
                    <mxGeometry width="50" height="50" relative="1" as="geometry">
                        <mxPoint x="512.82" y="580" as="sourcePoint"/>
                        <mxPoint x="612.82" y="580" as="targetPoint"/>
                        <Array as="points">
                            <mxPoint x="590" y="580"/>
                        </Array>
                    </mxGeometry>
                </mxCell>
                <mxCell id="1q6JDUxdyjMyTkkyKD93-63" value="&lt;b&gt;32'b0&lt;/b&gt;" style="text;html=1;align=center;verticalAlign=middle;resizable=0;points=[];autosize=1;strokeColor=none;fillColor=none;fontSize=16;fontColor=#0a0a0a;" vertex="1" parent="1">
                    <mxGeometry x="530" y="550" width="60" height="30" as="geometry"/>
                </mxCell>
                <mxCell id="1q6JDUxdyjMyTkkyKD93-64" value="" style="endArrow=classic;html=1;fontSize=16;fontColor=#0a0a0a;" edge="1" parent="1">
                    <mxGeometry width="50" height="50" relative="1" as="geometry">
                        <mxPoint x="650" y="740" as="sourcePoint"/>
                        <mxPoint x="650" y="660" as="targetPoint"/>
                    </mxGeometry>
                </mxCell>
                <mxCell id="1q6JDUxdyjMyTkkyKD93-65" value="Ctrl.RegSrc2Q101H" style="text;html=1;align=center;verticalAlign=middle;resizable=0;points=[];autosize=1;strokeColor=none;fillColor=none;fontSize=16;fontStyle=1;fontColor=#0a0a0a;rotation=0;" vertex="1" parent="1">
                    <mxGeometry x="590" y="680" width="170" height="30" as="geometry"/>
                </mxCell>
                <mxCell id="1q6JDUxdyjMyTkkyKD93-66" value="" style="endArrow=classic;html=1;fontSize=16;fontColor=#0a0a0a;exitX=0.5;exitY=0;exitDx=0;exitDy=0;entryX=0.017;entryY=0.692;entryDx=0;entryDy=0;entryPerimeter=0;" edge="1" parent="1" source="1q6JDUxdyjMyTkkyKD93-61" target="9bT-2X5xyFC2AuUNZW9H-1">
                    <mxGeometry width="50" height="50" relative="1" as="geometry">
                        <mxPoint x="690" y="610" as="sourcePoint"/>
                        <mxPoint x="760" y="610" as="targetPoint"/>
                    </mxGeometry>
                </mxCell>
                <mxCell id="1q6JDUxdyjMyTkkyKD93-67" value="" style="endArrow=classic;html=1;fontSize=14;" edge="1" parent="1">
                    <mxGeometry width="50" height="50" relative="1" as="geometry">
                        <mxPoint x="830" y="360" as="sourcePoint"/>
                        <mxPoint x="910" y="360" as="targetPoint"/>
                    </mxGeometry>
                </mxCell>
                <mxCell id="1q6JDUxdyjMyTkkyKD93-68" value="" style="endArrow=classic;html=1;fontSize=14;" edge="1" parent="1">
                    <mxGeometry width="50" height="50" relative="1" as="geometry">
                        <mxPoint x="830" y="478.81999999999994" as="sourcePoint"/>
                        <mxPoint x="910" y="478.81999999999994" as="targetPoint"/>
                    </mxGeometry>
                </mxCell>
                <mxCell id="1q6JDUxdyjMyTkkyKD93-69" value="RegRdData1Q101H" style="text;html=1;align=center;verticalAlign=middle;resizable=0;points=[];autosize=1;strokeColor=none;fillColor=none;fontSize=16;fontStyle=1;fontColor=#0a0a0a;rotation=0;" vertex="1" parent="1">
                    <mxGeometry x="705" y="250" width="170" height="30" as="geometry"/>
                </mxCell>
                <mxCell id="1q6JDUxdyjMyTkkyKD93-70" value="RegRdData2Q101H" style="text;html=1;align=center;verticalAlign=middle;resizable=0;points=[];autosize=1;strokeColor=none;fillColor=none;fontSize=16;fontStyle=1;fontColor=#0a0a0a;rotation=0;" vertex="1" parent="1">
                    <mxGeometry x="705" y="570" width="170" height="30" as="geometry"/>
                </mxCell>
                <mxCell id="1q6JDUxdyjMyTkkyKD93-71" value="PcQ101H" style="text;html=1;align=center;verticalAlign=middle;resizable=0;points=[];autosize=1;strokeColor=none;fillColor=none;fontSize=16;fontStyle=1;fontColor=#0a0a0a;rotation=0;" vertex="1" parent="1">
                    <mxGeometry x="820" y="320" width="90" height="30" as="geometry"/>
                </mxCell>
                <mxCell id="1q6JDUxdyjMyTkkyKD93-72" value="" style="endArrow=classic;html=1;fontSize=14;" edge="1" parent="1">
                    <mxGeometry width="50" height="50" relative="1" as="geometry">
                        <mxPoint x="1000" y="360" as="sourcePoint"/>
                        <mxPoint x="1080" y="360" as="targetPoint"/>
                    </mxGeometry>
                </mxCell>
                <mxCell id="1q6JDUxdyjMyTkkyKD93-73" value="PcQ102H" style="text;html=1;align=center;verticalAlign=middle;resizable=0;points=[];autosize=1;strokeColor=none;fillColor=none;fontSize=16;fontStyle=1;fontColor=#0a0a0a;rotation=0;" vertex="1" parent="1">
                    <mxGeometry x="1010" y="320" width="90" height="30" as="geometry"/>
                </mxCell>
                <mxCell id="1q6JDUxdyjMyTkkyKD93-75" value="" style="endArrow=classic;html=1;fontSize=14;" edge="1" parent="1">
                    <mxGeometry width="50" height="50" relative="1" as="geometry">
                        <mxPoint x="1000" y="289.40999999999997" as="sourcePoint"/>
                        <mxPoint x="1080" y="289.40999999999997" as="targetPoint"/>
                    </mxGeometry>
                </mxCell>
                <mxCell id="1q6JDUxdyjMyTkkyKD93-76" value="RegRdData1Q102H" style="text;html=1;align=center;verticalAlign=middle;resizable=0;points=[];autosize=1;strokeColor=none;fillColor=none;fontSize=16;fontStyle=1;fontColor=#0a0a0a;rotation=0;" vertex="1" parent="1">
                    <mxGeometry x="1000" y="250" width="170" height="30" as="geometry"/>
                </mxCell>
                <mxCell id="1q6JDUxdyjMyTkkyKD93-77" value="" style="endArrow=classic;html=1;fontSize=14;" edge="1" parent="1">
                    <mxGeometry width="50" height="50" relative="1" as="geometry">
                        <mxPoint x="1000" y="609.9999999999998" as="sourcePoint"/>
                        <mxPoint x="1080" y="609.9999999999998" as="targetPoint"/>
                    </mxGeometry>
                </mxCell>
                <mxCell id="1q6JDUxdyjMyTkkyKD93-78" value="RegRdData2Q102H" style="text;html=1;align=center;verticalAlign=middle;resizable=0;points=[];autosize=1;strokeColor=none;fillColor=none;fontSize=16;fontStyle=1;fontColor=#0a0a0a;rotation=0;" vertex="1" parent="1">
                    <mxGeometry x="1000" y="570" width="170" height="30" as="geometry"/>
                </mxCell>
                <mxCell id="1q6JDUxdyjMyTkkyKD93-79" value="ImmediateQ101H" style="text;html=1;align=center;verticalAlign=middle;resizable=0;points=[];autosize=1;strokeColor=none;fillColor=none;fontSize=16;fontStyle=1;fontColor=#0a0a0a;rotation=0;" vertex="1" parent="1">
                    <mxGeometry x="750" y="440" width="150" height="30" as="geometry"/>
                </mxCell>
                <mxCell id="1q6JDUxdyjMyTkkyKD93-80" value="" style="endArrow=classic;html=1;fontSize=14;" edge="1" parent="1">
                    <mxGeometry width="50" height="50" relative="1" as="geometry">
                        <mxPoint x="1000" y="479.9999999999997" as="sourcePoint"/>
                        <mxPoint x="1080" y="479.9999999999997" as="targetPoint"/>
                    </mxGeometry>
                </mxCell>
                <mxCell id="1q6JDUxdyjMyTkkyKD93-81" value="ImmediateQ102H" style="text;html=1;align=center;verticalAlign=middle;resizable=0;points=[];autosize=1;strokeColor=none;fillColor=none;fontSize=16;fontStyle=1;fontColor=#0a0a0a;rotation=0;" vertex="1" parent="1">
                    <mxGeometry x="1000" y="440" width="150" height="30" as="geometry"/>
                </mxCell>
            </root>
        </mxGraphModel>
    </diagram>
</mxfile>